<mxfile modified="2023-08-06T13:52:57.086Z" host="app.diagrams.net" agent="Mozilla/5.0 (Macintosh; Intel Mac OS X 10_15_7) AppleWebKit/537.36 (KHTML, like Gecko) Chrome/115.0.0.0 Safari/537.36" etag="VZxoqCU9cvM9b0vtr9MK" version="21.6.6" type="device">
  <diagram id="Ht1M8jgEwFfnCIfOTk4-" name="Page-1">
    <mxGraphModel dx="5175" dy="2091" grid="1" gridSize="10" guides="1" tooltips="1" connect="1" arrows="1" fold="1" page="1" pageScale="1" pageWidth="2336" pageHeight="1654" math="0" shadow="0">
      <root>
        <mxCell id="0" />
        <mxCell id="1" parent="0" />
        <mxCell id="rve9FBE8nEOOU07aJZPF-2" value="" style="endArrow=classic;startArrow=classic;html=1;rounded=0;entryX=0;entryY=0.5;entryDx=0;entryDy=0;entryPerimeter=0;" edge="1" parent="1" source="rve9FBE8nEOOU07aJZPF-46" target="rve9FBE8nEOOU07aJZPF-3">
          <mxGeometry width="50" height="50" relative="1" as="geometry">
            <mxPoint x="529.5" y="689.0714285714287" as="sourcePoint" />
            <mxPoint x="599.5" y="689" as="targetPoint" />
          </mxGeometry>
        </mxCell>
        <mxCell id="rve9FBE8nEOOU07aJZPF-5" value="" style="group" vertex="1" connectable="0" parent="1">
          <mxGeometry x="670" y="720" width="79" height="109" as="geometry" />
        </mxCell>
        <mxCell id="rve9FBE8nEOOU07aJZPF-3" value="" style="sketch=0;points=[[0,0,0],[0.25,0,0],[0.5,0,0],[0.75,0,0],[1,0,0],[0,1,0],[0.25,1,0],[0.5,1,0],[0.75,1,0],[1,1,0],[0,0.25,0],[0,0.5,0],[0,0.75,0],[1,0.25,0],[1,0.5,0],[1,0.75,0]];outlineConnect=0;fontColor=#232F3E;gradientColor=#945DF2;gradientDirection=north;fillColor=#5A30B5;strokeColor=#ffffff;dashed=0;verticalLabelPosition=bottom;verticalAlign=top;align=center;html=1;fontSize=12;fontStyle=0;aspect=fixed;shape=mxgraph.aws4.resourceIcon;resIcon=mxgraph.aws4.route_53;" vertex="1" parent="rve9FBE8nEOOU07aJZPF-5">
          <mxGeometry width="79" height="79" as="geometry" />
        </mxCell>
        <mxCell id="rve9FBE8nEOOU07aJZPF-4" value="Route53" style="text;html=1;strokeColor=none;fillColor=none;align=center;verticalAlign=middle;whiteSpace=wrap;rounded=0;" vertex="1" parent="rve9FBE8nEOOU07aJZPF-5">
          <mxGeometry x="9.5" y="79" width="60" height="30" as="geometry" />
        </mxCell>
        <mxCell id="rve9FBE8nEOOU07aJZPF-6" value="" style="endArrow=classic;startArrow=classic;html=1;rounded=0;entryX=0.5;entryY=1;entryDx=0;entryDy=0;exitX=0.5;exitY=0;exitDx=0;exitDy=0;exitPerimeter=0;" edge="1" parent="1" source="rve9FBE8nEOOU07aJZPF-7" target="rve9FBE8nEOOU07aJZPF-4">
          <mxGeometry width="50" height="50" relative="1" as="geometry">
            <mxPoint x="730.5" y="1048" as="sourcePoint" />
            <mxPoint x="720.5" y="849" as="targetPoint" />
          </mxGeometry>
        </mxCell>
        <mxCell id="rve9FBE8nEOOU07aJZPF-9" value="" style="group" vertex="1" connectable="0" parent="1">
          <mxGeometry x="671" y="940" width="109" height="177" as="geometry" />
        </mxCell>
        <mxCell id="rve9FBE8nEOOU07aJZPF-7" value="" style="sketch=0;points=[[0,0,0],[0.25,0,0],[0.5,0,0],[0.75,0,0],[1,0,0],[0,1,0],[0.25,1,0],[0.5,1,0],[0.75,1,0],[1,1,0],[0,0.25,0],[0,0.5,0],[0,0.75,0],[1,0.25,0],[1,0.5,0],[1,0.75,0]];outlineConnect=0;fontColor=#232F3E;gradientColor=#945DF2;gradientDirection=north;fillColor=#5A30B5;strokeColor=#ffffff;dashed=0;verticalLabelPosition=bottom;verticalAlign=top;align=center;html=1;fontSize=12;fontStyle=0;aspect=fixed;shape=mxgraph.aws4.resourceIcon;resIcon=mxgraph.aws4.cloudfront;" vertex="1" parent="rve9FBE8nEOOU07aJZPF-9">
          <mxGeometry y="108" width="78" height="78" as="geometry" />
        </mxCell>
        <mxCell id="rve9FBE8nEOOU07aJZPF-11" value="" style="endArrow=classic;startArrow=classic;html=1;rounded=0;entryX=0.5;entryY=1;entryDx=0;entryDy=0;exitX=0.5;exitY=0;exitDx=0;exitDy=0;exitPerimeter=0;" edge="1" parent="1" source="rve9FBE8nEOOU07aJZPF-10" target="rve9FBE8nEOOU07aJZPF-8">
          <mxGeometry width="50" height="50" relative="1" as="geometry">
            <mxPoint x="729.5" y="1208" as="sourcePoint" />
            <mxPoint x="1510.5" y="938" as="targetPoint" />
          </mxGeometry>
        </mxCell>
        <mxCell id="rve9FBE8nEOOU07aJZPF-13" value="" style="group" vertex="1" connectable="0" parent="1">
          <mxGeometry x="671" y="1208" width="130" height="108" as="geometry" />
        </mxCell>
        <mxCell id="rve9FBE8nEOOU07aJZPF-10" value="" style="sketch=0;points=[[0,0,0],[0.25,0,0],[0.5,0,0],[0.75,0,0],[1,0,0],[0,1,0],[0.25,1,0],[0.5,1,0],[0.75,1,0],[1,1,0],[0,0.25,0],[0,0.5,0],[0,0.75,0],[1,0.25,0],[1,0.5,0],[1,0.75,0]];outlineConnect=0;fontColor=#232F3E;gradientColor=#60A337;gradientDirection=north;fillColor=#277116;strokeColor=#ffffff;dashed=0;verticalLabelPosition=bottom;verticalAlign=top;align=center;html=1;fontSize=12;fontStyle=0;aspect=fixed;shape=mxgraph.aws4.resourceIcon;resIcon=mxgraph.aws4.s3;" vertex="1" parent="rve9FBE8nEOOU07aJZPF-13">
          <mxGeometry width="78" height="78" as="geometry" />
        </mxCell>
        <mxCell id="rve9FBE8nEOOU07aJZPF-12" value="S3 (static web code)" style="text;html=1;strokeColor=none;fillColor=none;align=center;verticalAlign=middle;whiteSpace=wrap;rounded=0;" vertex="1" parent="rve9FBE8nEOOU07aJZPF-13">
          <mxGeometry x="-21.5" y="78" width="121" height="30" as="geometry" />
        </mxCell>
        <mxCell id="rve9FBE8nEOOU07aJZPF-14" value="" style="endArrow=classic;startArrow=classic;html=1;rounded=0;exitX=1;exitY=0.5;exitDx=0;exitDy=0;exitPerimeter=0;" edge="1" parent="1" source="rve9FBE8nEOOU07aJZPF-3">
          <mxGeometry width="50" height="50" relative="1" as="geometry">
            <mxPoint x="769.5" y="759.5" as="sourcePoint" />
            <mxPoint x="830.5" y="760" as="targetPoint" />
          </mxGeometry>
        </mxCell>
        <mxCell id="rve9FBE8nEOOU07aJZPF-17" value="" style="endArrow=classic;startArrow=classic;html=1;rounded=0;exitX=1;exitY=0.5;exitDx=0;exitDy=0;exitPerimeter=0;" edge="1" parent="1" source="rve9FBE8nEOOU07aJZPF-15">
          <mxGeometry width="50" height="50" relative="1" as="geometry">
            <mxPoint x="1470.5" y="850" as="sourcePoint" />
            <mxPoint x="970.5" y="760" as="targetPoint" />
          </mxGeometry>
        </mxCell>
        <mxCell id="rve9FBE8nEOOU07aJZPF-18" value="" style="rounded=1;whiteSpace=wrap;html=1;" vertex="1" parent="1">
          <mxGeometry x="970.5" y="680" width="409.5" height="170" as="geometry" />
        </mxCell>
        <mxCell id="rve9FBE8nEOOU07aJZPF-25" value="" style="group" vertex="1" connectable="0" parent="1">
          <mxGeometry x="830.5" y="720" width="81" height="108" as="geometry" />
        </mxCell>
        <mxCell id="rve9FBE8nEOOU07aJZPF-15" value="" style="sketch=0;points=[[0,0,0],[0.25,0,0],[0.5,0,0],[0.75,0,0],[1,0,0],[0,1,0],[0.25,1,0],[0.5,1,0],[0.75,1,0],[1,1,0],[0,0.25,0],[0,0.5,0],[0,0.75,0],[1,0.25,0],[1,0.5,0],[1,0.75,0]];outlineConnect=0;fontColor=#232F3E;gradientColor=#FF4F8B;gradientDirection=north;fillColor=#BC1356;strokeColor=#ffffff;dashed=0;verticalLabelPosition=bottom;verticalAlign=top;align=center;html=1;fontSize=12;fontStyle=0;aspect=fixed;shape=mxgraph.aws4.resourceIcon;resIcon=mxgraph.aws4.api_gateway;" vertex="1" parent="rve9FBE8nEOOU07aJZPF-25">
          <mxGeometry width="78" height="78" as="geometry" />
        </mxCell>
        <mxCell id="rve9FBE8nEOOU07aJZPF-16" value="API Gateway" style="text;html=1;strokeColor=none;fillColor=none;align=center;verticalAlign=middle;whiteSpace=wrap;rounded=0;" vertex="1" parent="rve9FBE8nEOOU07aJZPF-25">
          <mxGeometry y="78" width="81" height="30" as="geometry" />
        </mxCell>
        <mxCell id="rve9FBE8nEOOU07aJZPF-26" value="" style="group" vertex="1" connectable="0" parent="1">
          <mxGeometry x="1020" y="714" width="90" height="120" as="geometry" />
        </mxCell>
        <mxCell id="rve9FBE8nEOOU07aJZPF-20" value="" style="sketch=0;points=[[0,0,0],[0.25,0,0],[0.5,0,0],[0.75,0,0],[1,0,0],[0,1,0],[0.25,1,0],[0.5,1,0],[0.75,1,0],[1,1,0],[0,0.25,0],[0,0.5,0],[0,0.75,0],[1,0.25,0],[1,0.5,0],[1,0.75,0]];outlineConnect=0;fontColor=#232F3E;gradientColor=#F78E04;gradientDirection=north;fillColor=#D05C17;strokeColor=#ffffff;dashed=0;verticalLabelPosition=bottom;verticalAlign=top;align=center;html=1;fontSize=12;fontStyle=0;aspect=fixed;shape=mxgraph.aws4.resourceIcon;resIcon=mxgraph.aws4.lambda;" vertex="1" parent="rve9FBE8nEOOU07aJZPF-26">
          <mxGeometry width="90" height="90" as="geometry" />
        </mxCell>
        <mxCell id="rve9FBE8nEOOU07aJZPF-22" value="Lambda" style="text;html=1;strokeColor=none;fillColor=none;align=center;verticalAlign=middle;whiteSpace=wrap;rounded=0;" vertex="1" parent="rve9FBE8nEOOU07aJZPF-26">
          <mxGeometry x="4.5" y="90" width="81" height="30" as="geometry" />
        </mxCell>
        <mxCell id="rve9FBE8nEOOU07aJZPF-27" value="" style="group" vertex="1" connectable="0" parent="1">
          <mxGeometry x="1238" y="710" width="90" height="120" as="geometry" />
        </mxCell>
        <mxCell id="rve9FBE8nEOOU07aJZPF-21" value="" style="sketch=0;points=[[0,0,0],[0.25,0,0],[0.5,0,0],[0.75,0,0],[1,0,0],[0,1,0],[0.25,1,0],[0.5,1,0],[0.75,1,0],[1,1,0],[0,0.25,0],[0,0.5,0],[0,0.75,0],[1,0.25,0],[1,0.5,0],[1,0.75,0]];outlineConnect=0;fontColor=#232F3E;gradientColor=#F78E04;gradientDirection=north;fillColor=#D05C17;strokeColor=#ffffff;dashed=0;verticalLabelPosition=bottom;verticalAlign=top;align=center;html=1;fontSize=12;fontStyle=0;aspect=fixed;shape=mxgraph.aws4.resourceIcon;resIcon=mxgraph.aws4.fargate;" vertex="1" parent="rve9FBE8nEOOU07aJZPF-27">
          <mxGeometry width="90" height="90" as="geometry" />
        </mxCell>
        <mxCell id="rve9FBE8nEOOU07aJZPF-23" value="Fargate" style="text;html=1;strokeColor=none;fillColor=none;align=center;verticalAlign=middle;whiteSpace=wrap;rounded=0;" vertex="1" parent="rve9FBE8nEOOU07aJZPF-27">
          <mxGeometry x="4.5" y="90" width="81" height="30" as="geometry" />
        </mxCell>
        <mxCell id="rve9FBE8nEOOU07aJZPF-28" value="" style="endArrow=classic;startArrow=classic;html=1;rounded=0;exitX=1;exitY=0.5;exitDx=0;exitDy=0;entryX=0;entryY=0.5;entryDx=0;entryDy=0;" edge="1" parent="1" source="rve9FBE8nEOOU07aJZPF-18" target="rve9FBE8nEOOU07aJZPF-69">
          <mxGeometry width="50" height="50" relative="1" as="geometry">
            <mxPoint x="1470.5" y="850" as="sourcePoint" />
            <mxPoint x="1330.5" y="760" as="targetPoint" />
          </mxGeometry>
        </mxCell>
        <mxCell id="rve9FBE8nEOOU07aJZPF-30" value="" style="endArrow=classic;startArrow=classic;html=1;rounded=0;entryX=0.5;entryY=1;entryDx=0;entryDy=0;" edge="1" parent="1" target="rve9FBE8nEOOU07aJZPF-31">
          <mxGeometry width="50" height="50" relative="1" as="geometry">
            <mxPoint x="870.6" y="714" as="sourcePoint" />
            <mxPoint x="870.5" y="630" as="targetPoint" />
          </mxGeometry>
        </mxCell>
        <mxCell id="rve9FBE8nEOOU07aJZPF-31" value="" style="rounded=1;whiteSpace=wrap;html=1;" vertex="1" parent="1">
          <mxGeometry x="726" y="470" width="290" height="150" as="geometry" />
        </mxCell>
        <mxCell id="rve9FBE8nEOOU07aJZPF-32" value="Authoriser - to authorise users permission to access" style="text;html=1;strokeColor=none;fillColor=none;align=center;verticalAlign=middle;whiteSpace=wrap;rounded=0;" vertex="1" parent="1">
          <mxGeometry x="730.5" y="440" width="281" height="30" as="geometry" />
        </mxCell>
        <mxCell id="rve9FBE8nEOOU07aJZPF-33" value="" style="group" vertex="1" connectable="0" parent="1">
          <mxGeometry x="890.5" y="490" width="90" height="115" as="geometry" />
        </mxCell>
        <mxCell id="rve9FBE8nEOOU07aJZPF-34" value="" style="sketch=0;points=[[0,0,0],[0.25,0,0],[0.5,0,0],[0.75,0,0],[1,0,0],[0,1,0],[0.25,1,0],[0.5,1,0],[0.75,1,0],[1,1,0],[0,0.25,0],[0,0.5,0],[0,0.75,0],[1,0.25,0],[1,0.5,0],[1,0.75,0]];outlineConnect=0;fontColor=#232F3E;gradientColor=#F78E04;gradientDirection=north;fillColor=#D05C17;strokeColor=#ffffff;dashed=0;verticalLabelPosition=bottom;verticalAlign=top;align=center;html=1;fontSize=12;fontStyle=0;aspect=fixed;shape=mxgraph.aws4.resourceIcon;resIcon=mxgraph.aws4.lambda;" vertex="1" parent="rve9FBE8nEOOU07aJZPF-33">
          <mxGeometry width="86.25" height="86.25" as="geometry" />
        </mxCell>
        <mxCell id="rve9FBE8nEOOU07aJZPF-35" value="Lambda" style="text;html=1;strokeColor=none;fillColor=none;align=center;verticalAlign=middle;whiteSpace=wrap;rounded=0;" vertex="1" parent="rve9FBE8nEOOU07aJZPF-33">
          <mxGeometry x="4.5" y="86.25" width="81" height="28.75" as="geometry" />
        </mxCell>
        <mxCell id="rve9FBE8nEOOU07aJZPF-36" value="OR" style="text;html=1;strokeColor=none;fillColor=none;align=center;verticalAlign=middle;whiteSpace=wrap;rounded=0;" vertex="1" parent="1">
          <mxGeometry x="850.5" y="515" width="30" height="30" as="geometry" />
        </mxCell>
        <mxCell id="rve9FBE8nEOOU07aJZPF-37" value="" style="sketch=0;points=[[0,0,0],[0.25,0,0],[0.5,0,0],[0.75,0,0],[1,0,0],[0,1,0],[0.25,1,0],[0.5,1,0],[0.75,1,0],[1,1,0],[0,0.25,0],[0,0.5,0],[0,0.75,0],[1,0.25,0],[1,0.5,0],[1,0.75,0]];outlineConnect=0;fontColor=#232F3E;gradientColor=#F54749;gradientDirection=north;fillColor=#C7131F;strokeColor=#ffffff;dashed=0;verticalLabelPosition=bottom;verticalAlign=top;align=center;html=1;fontSize=12;fontStyle=0;aspect=fixed;shape=mxgraph.aws4.resourceIcon;resIcon=mxgraph.aws4.cognito;" vertex="1" parent="1">
          <mxGeometry x="760.5" y="495" width="80" height="80" as="geometry" />
        </mxCell>
        <mxCell id="rve9FBE8nEOOU07aJZPF-38" value="Cognito" style="text;html=1;strokeColor=none;fillColor=none;align=center;verticalAlign=middle;whiteSpace=wrap;rounded=0;" vertex="1" parent="1">
          <mxGeometry x="760.5" y="575" width="81" height="30" as="geometry" />
        </mxCell>
        <mxCell id="rve9FBE8nEOOU07aJZPF-46" value="users" style="sketch=0;outlineConnect=0;gradientColor=none;fontColor=#545B64;strokeColor=none;fillColor=#879196;dashed=0;verticalLabelPosition=bottom;verticalAlign=top;align=center;html=1;fontSize=12;fontStyle=0;aspect=fixed;shape=mxgraph.aws4.illustration_users;pointerEvents=1" vertex="1" parent="1">
          <mxGeometry x="330" y="734.5" width="50" height="50" as="geometry" />
        </mxCell>
        <mxCell id="rve9FBE8nEOOU07aJZPF-49" value="" style="endArrow=classic;startArrow=classic;html=1;rounded=0;exitX=1;exitY=0.5;exitDx=0;exitDy=0;exitPerimeter=0;entryX=0;entryY=0.5;entryDx=0;entryDy=0;entryPerimeter=0;" edge="1" parent="1" source="rve9FBE8nEOOU07aJZPF-7" target="rve9FBE8nEOOU07aJZPF-40">
          <mxGeometry width="50" height="50" relative="1" as="geometry">
            <mxPoint x="769.4999999999995" y="1087" as="sourcePoint" />
            <mxPoint x="1660.5" y="809" as="targetPoint" />
          </mxGeometry>
        </mxCell>
        <mxCell id="rve9FBE8nEOOU07aJZPF-51" value="cushon URLs" style="text;html=1;strokeColor=none;fillColor=none;align=center;verticalAlign=middle;whiteSpace=wrap;rounded=0;" vertex="1" parent="1">
          <mxGeometry x="395" y="724" width="70" height="30" as="geometry" />
        </mxCell>
        <mxCell id="rve9FBE8nEOOU07aJZPF-55" value="" style="endArrow=classic;startArrow=classic;html=1;rounded=0;entryX=0.5;entryY=1;entryDx=0;entryDy=0;" edge="1" parent="1" target="rve9FBE8nEOOU07aJZPF-54">
          <mxGeometry width="50" height="50" relative="1" as="geometry">
            <mxPoint x="1111.5700000000002" y="680" as="sourcePoint" />
            <mxPoint x="1111.5" y="620" as="targetPoint" />
          </mxGeometry>
        </mxCell>
        <mxCell id="rve9FBE8nEOOU07aJZPF-56" value="" style="endArrow=classic;startArrow=classic;html=1;rounded=0;exitX=0.5;exitY=1;exitDx=0;exitDy=0;entryX=0.5;entryY=0;entryDx=0;entryDy=0;entryPerimeter=0;" edge="1" parent="1" source="rve9FBE8nEOOU07aJZPF-16" target="rve9FBE8nEOOU07aJZPF-45">
          <mxGeometry width="50" height="50" relative="1" as="geometry">
            <mxPoint x="867.75" y="828" as="sourcePoint" />
            <mxPoint x="929.75" y="829" as="targetPoint" />
          </mxGeometry>
        </mxCell>
        <mxCell id="rve9FBE8nEOOU07aJZPF-57" value="" style="group" vertex="1" connectable="0" parent="1">
          <mxGeometry x="810.5" y="872" width="119.25" height="108" as="geometry" />
        </mxCell>
        <mxCell id="rve9FBE8nEOOU07aJZPF-45" value="" style="sketch=0;points=[[0,0,0],[0.25,0,0],[0.5,0,0],[0.75,0,0],[1,0,0],[0,1,0],[0.25,1,0],[0.5,1,0],[0.75,1,0],[1,1,0],[0,0.25,0],[0,0.5,0],[0,0.75,0],[1,0.25,0],[1,0.5,0],[1,0.75,0]];outlineConnect=0;fontColor=#232F3E;gradientColor=#F54749;gradientDirection=north;fillColor=#C7131F;strokeColor=#ffffff;dashed=0;verticalLabelPosition=bottom;verticalAlign=top;align=center;html=1;fontSize=12;fontStyle=0;aspect=fixed;shape=mxgraph.aws4.resourceIcon;resIcon=mxgraph.aws4.waf;" vertex="1" parent="rve9FBE8nEOOU07aJZPF-57">
          <mxGeometry x="21.5" width="78" height="78" as="geometry" />
        </mxCell>
        <mxCell id="rve9FBE8nEOOU07aJZPF-53" value="&lt;br&gt;WAF (Firewall)" style="text;html=1;strokeColor=none;fillColor=none;align=center;verticalAlign=middle;whiteSpace=wrap;rounded=0;" vertex="1" parent="rve9FBE8nEOOU07aJZPF-57">
          <mxGeometry x="1" y="72" width="119.25" height="30" as="geometry" />
        </mxCell>
        <mxCell id="rve9FBE8nEOOU07aJZPF-59" value="" style="group" vertex="1" connectable="0" parent="1">
          <mxGeometry x="1031.25" y="506" width="158" height="114" as="geometry" />
        </mxCell>
        <mxCell id="rve9FBE8nEOOU07aJZPF-44" value="" style="sketch=0;points=[[0,0,0],[0.25,0,0],[0.5,0,0],[0.75,0,0],[1,0,0],[0,1,0],[0.25,1,0],[0.5,1,0],[0.75,1,0],[1,1,0],[0,0.25,0],[0,0.5,0],[0,0.75,0],[1,0.25,0],[1,0.5,0],[1,0.75,0]];outlineConnect=0;fontColor=#232F3E;gradientColor=#F54749;gradientDirection=north;fillColor=#C7131F;strokeColor=#ffffff;dashed=0;verticalLabelPosition=bottom;verticalAlign=top;align=center;html=1;fontSize=12;fontStyle=0;aspect=fixed;shape=mxgraph.aws4.resourceIcon;resIcon=mxgraph.aws4.secrets_manager;" vertex="1" parent="rve9FBE8nEOOU07aJZPF-59">
          <mxGeometry x="36" width="78" height="78" as="geometry" />
        </mxCell>
        <mxCell id="rve9FBE8nEOOU07aJZPF-54" value="Secrets Manager&lt;br&gt;(to retrieve sensitive data)" style="text;html=1;strokeColor=none;fillColor=none;align=center;verticalAlign=middle;whiteSpace=wrap;rounded=0;" vertex="1" parent="rve9FBE8nEOOU07aJZPF-59">
          <mxGeometry y="84" width="158" height="30" as="geometry" />
        </mxCell>
        <mxCell id="rve9FBE8nEOOU07aJZPF-8" value="CloudFront" style="text;html=1;strokeColor=none;fillColor=none;align=center;verticalAlign=middle;whiteSpace=wrap;rounded=0;" vertex="1" parent="1">
          <mxGeometry x="680" y="1126" width="60" height="30" as="geometry" />
        </mxCell>
        <mxCell id="rve9FBE8nEOOU07aJZPF-62" value="" style="group" vertex="1" connectable="0" parent="1">
          <mxGeometry x="800" y="1048" width="110" height="112" as="geometry" />
        </mxCell>
        <mxCell id="rve9FBE8nEOOU07aJZPF-40" value="" style="sketch=0;points=[[0,0,0],[0.25,0,0],[0.5,0,0],[0.75,0,0],[1,0,0],[0,1,0],[0.25,1,0],[0.5,1,0],[0.75,1,0],[1,1,0],[0,0.25,0],[0,0.5,0],[0,0.75,0],[1,0.25,0],[1,0.5,0],[1,0.75,0]];outlineConnect=0;fontColor=#232F3E;gradientColor=#F54749;gradientDirection=north;fillColor=#C7131F;strokeColor=#ffffff;dashed=0;verticalLabelPosition=bottom;verticalAlign=top;align=center;html=1;fontSize=12;fontStyle=0;aspect=fixed;shape=mxgraph.aws4.resourceIcon;resIcon=mxgraph.aws4.certificate_manager_3;" vertex="1" parent="rve9FBE8nEOOU07aJZPF-62">
          <mxGeometry x="16" width="78" height="78" as="geometry" />
        </mxCell>
        <mxCell id="rve9FBE8nEOOU07aJZPF-48" value="Certificate Manager &lt;br&gt;for TLS" style="text;html=1;strokeColor=none;fillColor=none;align=center;verticalAlign=middle;whiteSpace=wrap;rounded=0;" vertex="1" parent="rve9FBE8nEOOU07aJZPF-62">
          <mxGeometry y="82" width="110" height="30" as="geometry" />
        </mxCell>
        <mxCell id="rve9FBE8nEOOU07aJZPF-73" value="HTTPS" style="text;html=1;strokeColor=none;fillColor=none;align=center;verticalAlign=middle;whiteSpace=wrap;rounded=0;" vertex="1" parent="1">
          <mxGeometry x="400" y="761" width="60" height="26" as="geometry" />
        </mxCell>
        <mxCell id="rve9FBE8nEOOU07aJZPF-109" value="VPC" style="points=[[0,0],[0.25,0],[0.5,0],[0.75,0],[1,0],[1,0.25],[1,0.5],[1,0.75],[1,1],[0.75,1],[0.5,1],[0.25,1],[0,1],[0,0.75],[0,0.5],[0,0.25]];outlineConnect=0;gradientColor=none;html=1;whiteSpace=wrap;fontSize=12;fontStyle=0;container=1;pointerEvents=0;collapsible=0;recursiveResize=0;shape=mxgraph.aws4.group;grIcon=mxgraph.aws4.group_vpc;strokeColor=#248814;fillColor=none;verticalAlign=top;align=left;spacingLeft=30;fontColor=#AAB7B8;dashed=0;" vertex="1" parent="1">
          <mxGeometry x="619" y="420" width="1331" height="930" as="geometry" />
        </mxCell>
        <mxCell id="rve9FBE8nEOOU07aJZPF-111" value="Region" style="points=[[0,0],[0.25,0],[0.5,0],[0.75,0],[1,0],[1,0.25],[1,0.5],[1,0.75],[1,1],[0.75,1],[0.5,1],[0.25,1],[0,1],[0,0.75],[0,0.5],[0,0.25]];outlineConnect=0;gradientColor=none;html=1;whiteSpace=wrap;fontSize=12;fontStyle=0;container=1;pointerEvents=0;collapsible=0;recursiveResize=0;shape=mxgraph.aws4.group;grIcon=mxgraph.aws4.group_region;strokeColor=#147EBA;fillColor=none;verticalAlign=top;align=left;spacingLeft=30;fontColor=#147EBA;dashed=1;" vertex="1" parent="1">
          <mxGeometry x="520" y="220" width="1470" height="1170" as="geometry" />
        </mxCell>
        <mxCell id="rve9FBE8nEOOU07aJZPF-77" value="" style="group" vertex="1" connectable="0" parent="rve9FBE8nEOOU07aJZPF-111">
          <mxGeometry x="419.5" y="59" width="78" height="108" as="geometry" />
        </mxCell>
        <mxCell id="rve9FBE8nEOOU07aJZPF-76" value="IAM" style="text;html=1;strokeColor=none;fillColor=none;align=center;verticalAlign=middle;whiteSpace=wrap;rounded=0;" vertex="1" parent="rve9FBE8nEOOU07aJZPF-77">
          <mxGeometry x="14.5" y="78" width="49" height="30" as="geometry" />
        </mxCell>
        <mxCell id="rve9FBE8nEOOU07aJZPF-41" value="" style="sketch=0;points=[[0,0,0],[0.25,0,0],[0.5,0,0],[0.75,0,0],[1,0,0],[0,1,0],[0.25,1,0],[0.5,1,0],[0.75,1,0],[1,1,0],[0,0.25,0],[0,0.5,0],[0,0.75,0],[1,0.25,0],[1,0.5,0],[1,0.75,0]];outlineConnect=0;fontColor=#232F3E;gradientColor=#F54749;gradientDirection=north;fillColor=#C7131F;strokeColor=#ffffff;dashed=0;verticalLabelPosition=bottom;verticalAlign=top;align=center;html=1;fontSize=12;fontStyle=0;aspect=fixed;shape=mxgraph.aws4.resourceIcon;resIcon=mxgraph.aws4.shield;" vertex="1" parent="rve9FBE8nEOOU07aJZPF-111">
          <mxGeometry x="1134.3376470588237" y="60.5" width="78" height="78" as="geometry" />
        </mxCell>
        <mxCell id="rve9FBE8nEOOU07aJZPF-65" value="AWS Shield - DDoS, Infrastructure" style="text;html=1;strokeColor=none;fillColor=none;align=center;verticalAlign=middle;whiteSpace=wrap;rounded=0;" vertex="1" parent="rve9FBE8nEOOU07aJZPF-111">
          <mxGeometry x="1082" y="139.5" width="206.67" height="30" as="geometry" />
        </mxCell>
        <mxCell id="rve9FBE8nEOOU07aJZPF-75" value="" style="group" vertex="1" connectable="0" parent="rve9FBE8nEOOU07aJZPF-111">
          <mxGeometry x="230" y="62" width="100" height="105" as="geometry" />
        </mxCell>
        <mxCell id="rve9FBE8nEOOU07aJZPF-67" value="Firewall Manager" style="text;html=1;strokeColor=none;fillColor=none;align=center;verticalAlign=middle;whiteSpace=wrap;rounded=0;" vertex="1" parent="rve9FBE8nEOOU07aJZPF-75">
          <mxGeometry y="75" width="100" height="30" as="geometry" />
        </mxCell>
        <mxCell id="rve9FBE8nEOOU07aJZPF-42" value="" style="sketch=0;points=[[0,0,0],[0.25,0,0],[0.5,0,0],[0.75,0,0],[1,0,0],[0,1,0],[0.25,1,0],[0.5,1,0],[0.75,1,0],[1,1,0],[0,0.25,0],[0,0.5,0],[0,0.75,0],[1,0.25,0],[1,0.5,0],[1,0.75,0]];outlineConnect=0;fontColor=#232F3E;gradientColor=#F54749;gradientDirection=north;fillColor=#C7131F;strokeColor=#ffffff;dashed=0;verticalLabelPosition=bottom;verticalAlign=top;align=center;html=1;fontSize=12;fontStyle=0;aspect=fixed;shape=mxgraph.aws4.resourceIcon;resIcon=mxgraph.aws4.identity_and_access_management;" vertex="1" parent="rve9FBE8nEOOU07aJZPF-111">
          <mxGeometry x="419.5" y="59" width="78" height="78" as="geometry" />
        </mxCell>
        <mxCell id="rve9FBE8nEOOU07aJZPF-43" value="" style="sketch=0;points=[[0,0,0],[0.25,0,0],[0.5,0,0],[0.75,0,0],[1,0,0],[0,1,0],[0.25,1,0],[0.5,1,0],[0.75,1,0],[1,1,0],[0,0.25,0],[0,0.5,0],[0,0.75,0],[1,0.25,0],[1,0.5,0],[1,0.75,0]];outlineConnect=0;fontColor=#232F3E;gradientColor=#F54749;gradientDirection=north;fillColor=#C7131F;strokeColor=#ffffff;dashed=0;verticalLabelPosition=bottom;verticalAlign=top;align=center;html=1;fontSize=12;fontStyle=0;aspect=fixed;shape=mxgraph.aws4.resourceIcon;resIcon=mxgraph.aws4.firewall_manager;" vertex="1" parent="rve9FBE8nEOOU07aJZPF-111">
          <mxGeometry x="241" y="62" width="78" height="78" as="geometry" />
        </mxCell>
        <mxCell id="rve9FBE8nEOOU07aJZPF-97" value="" style="sketch=0;points=[[0,0,0],[0.25,0,0],[0.5,0,0],[0.75,0,0],[1,0,0],[0,1,0],[0.25,1,0],[0.5,1,0],[0.75,1,0],[1,1,0],[0,0.25,0],[0,0.5,0],[0,0.75,0],[1,0.25,0],[1,0.5,0],[1,0.75,0]];outlineConnect=0;fontColor=#232F3E;gradientColor=#F78E04;gradientDirection=north;fillColor=#D05C17;strokeColor=#ffffff;dashed=0;verticalLabelPosition=bottom;verticalAlign=top;align=center;html=1;fontSize=12;fontStyle=0;aspect=fixed;shape=mxgraph.aws4.resourceIcon;resIcon=mxgraph.aws4.ecr;" vertex="1" parent="rve9FBE8nEOOU07aJZPF-111">
          <mxGeometry x="609.5" y="62" width="78" height="78" as="geometry" />
        </mxCell>
        <mxCell id="rve9FBE8nEOOU07aJZPF-98" value="ECR" style="text;html=1;strokeColor=none;fillColor=none;align=center;verticalAlign=middle;whiteSpace=wrap;rounded=0;" vertex="1" parent="rve9FBE8nEOOU07aJZPF-111">
          <mxGeometry x="624" y="138.5" width="49" height="30" as="geometry" />
        </mxCell>
        <mxCell id="rve9FBE8nEOOU07aJZPF-99" value="" style="sketch=0;points=[[0,0,0],[0.25,0,0],[0.5,0,0],[0.75,0,0],[1,0,0],[0,1,0],[0.25,1,0],[0.5,1,0],[0.75,1,0],[1,1,0],[0,0.25,0],[0,0.5,0],[0,0.75,0],[1,0.25,0],[1,0.5,0],[1,0.75,0]];outlineConnect=0;fontColor=#232F3E;gradientColor=#F54749;gradientDirection=north;fillColor=#C7131F;strokeColor=#ffffff;dashed=0;verticalLabelPosition=bottom;verticalAlign=top;align=center;html=1;fontSize=12;fontStyle=0;aspect=fixed;shape=mxgraph.aws4.resourceIcon;resIcon=mxgraph.aws4.guardduty;" vertex="1" parent="rve9FBE8nEOOU07aJZPF-111">
          <mxGeometry x="808.5" y="60.5" width="78" height="78" as="geometry" />
        </mxCell>
        <mxCell id="rve9FBE8nEOOU07aJZPF-100" value="GuardDuty" style="text;html=1;strokeColor=none;fillColor=none;align=center;verticalAlign=middle;whiteSpace=wrap;rounded=0;" vertex="1" parent="rve9FBE8nEOOU07aJZPF-111">
          <mxGeometry x="823" y="138.5" width="49" height="30" as="geometry" />
        </mxCell>
        <mxCell id="rve9FBE8nEOOU07aJZPF-101" value="" style="outlineConnect=0;dashed=0;verticalLabelPosition=bottom;verticalAlign=top;align=center;html=1;shape=mxgraph.aws3.cloudtrail;fillColor=#759C3E;gradientColor=none;" vertex="1" parent="rve9FBE8nEOOU07aJZPF-111">
          <mxGeometry x="966.5" y="64" width="69" height="70" as="geometry" />
        </mxCell>
        <mxCell id="rve9FBE8nEOOU07aJZPF-104" value="CloudTrail" style="text;html=1;strokeColor=none;fillColor=none;align=center;verticalAlign=middle;whiteSpace=wrap;rounded=0;" vertex="1" parent="rve9FBE8nEOOU07aJZPF-111">
          <mxGeometry x="977.5" y="137" width="49" height="30" as="geometry" />
        </mxCell>
        <mxCell id="rve9FBE8nEOOU07aJZPF-105" value="" style="sketch=0;points=[[0,0,0],[0.25,0,0],[0.5,0,0],[0.75,0,0],[1,0,0],[0,1,0],[0.25,1,0],[0.5,1,0],[0.75,1,0],[1,1,0],[0,0.25,0],[0,0.5,0],[0,0.75,0],[1,0.25,0],[1,0.5,0],[1,0.75,0]];outlineConnect=0;fontColor=#232F3E;gradientColor=#F54749;gradientDirection=north;fillColor=#C7131F;strokeColor=#ffffff;dashed=0;verticalLabelPosition=bottom;verticalAlign=top;align=center;html=1;fontSize=12;fontStyle=0;aspect=fixed;shape=mxgraph.aws4.resourceIcon;resIcon=mxgraph.aws4.key_management_service;" vertex="1" parent="rve9FBE8nEOOU07aJZPF-111">
          <mxGeometry x="696" y="290" width="78" height="78" as="geometry" />
        </mxCell>
        <mxCell id="rve9FBE8nEOOU07aJZPF-106" value="KMS (encrypting + decrypting)" style="text;html=1;strokeColor=none;fillColor=none;align=center;verticalAlign=middle;whiteSpace=wrap;rounded=0;" vertex="1" parent="rve9FBE8nEOOU07aJZPF-111">
          <mxGeometry x="665.5" y="368" width="139" height="42" as="geometry" />
        </mxCell>
        <mxCell id="rve9FBE8nEOOU07aJZPF-92" value="" style="group" vertex="1" connectable="0" parent="rve9FBE8nEOOU07aJZPF-111">
          <mxGeometry x="900" y="385" width="487.5" height="320" as="geometry" />
        </mxCell>
        <mxCell id="rve9FBE8nEOOU07aJZPF-69" value="" style="rounded=0;whiteSpace=wrap;html=1;fillColor=none;dashed=1;dashPattern=8 8;container=0;" vertex="1" parent="rve9FBE8nEOOU07aJZPF-92">
          <mxGeometry width="487.4982353005057" height="320" as="geometry" />
        </mxCell>
        <mxCell id="rve9FBE8nEOOU07aJZPF-29" value="" style="sketch=0;points=[[0,0,0],[0.25,0,0],[0.5,0,0],[0.75,0,0],[1,0,0],[0,1,0],[0.25,1,0],[0.5,1,0],[0.75,1,0],[1,1,0],[0,0.25,0],[0,0.5,0],[0,0.75,0],[1,0.25,0],[1,0.5,0],[1,0.75,0]];outlineConnect=0;fontColor=#232F3E;gradientColor=#4D72F3;gradientDirection=north;fillColor=#3334B9;strokeColor=#ffffff;dashed=0;verticalLabelPosition=bottom;verticalAlign=top;align=center;html=1;fontSize=12;fontStyle=0;aspect=fixed;shape=mxgraph.aws4.resourceIcon;resIcon=mxgraph.aws4.aurora;" vertex="1" parent="rve9FBE8nEOOU07aJZPF-92">
          <mxGeometry width="90" height="90" as="geometry" />
        </mxCell>
        <mxCell id="rve9FBE8nEOOU07aJZPF-74" value="security group" style="text;html=1;strokeColor=none;fillColor=none;align=center;verticalAlign=middle;whiteSpace=wrap;rounded=0;" vertex="1" parent="rve9FBE8nEOOU07aJZPF-92">
          <mxGeometry x="370.8092459393812" y="300" width="116.6907540606188" height="20" as="geometry" />
        </mxCell>
        <mxCell id="rve9FBE8nEOOU07aJZPF-61" value="Aurora (DB)" style="text;html=1;strokeColor=none;fillColor=none;align=center;verticalAlign=middle;whiteSpace=wrap;rounded=0;" vertex="1" parent="rve9FBE8nEOOU07aJZPF-92">
          <mxGeometry x="-0.00001447958561584528" y="90" width="69.9997466072521" height="20" as="geometry" />
        </mxCell>
        <mxCell id="rve9FBE8nEOOU07aJZPF-96" value="" style="group" vertex="1" connectable="0" parent="rve9FBE8nEOOU07aJZPF-92">
          <mxGeometry x="336" y="129" width="130" height="150" as="geometry" />
        </mxCell>
        <mxCell id="rve9FBE8nEOOU07aJZPF-88" value="Availability zone 3" style="sketch=0;outlineConnect=0;gradientColor=none;html=1;whiteSpace=wrap;fontSize=12;fontStyle=0;shape=mxgraph.aws4.group;grIcon=mxgraph.aws4.group_availability_zone;strokeColor=#545B64;fillColor=none;verticalAlign=top;align=left;spacingLeft=30;fontColor=#545B64;dashed=1;" vertex="1" parent="rve9FBE8nEOOU07aJZPF-96">
          <mxGeometry width="130" height="150" as="geometry" />
        </mxCell>
        <mxCell id="rve9FBE8nEOOU07aJZPF-91" value="" style="outlineConnect=0;dashed=0;verticalLabelPosition=bottom;verticalAlign=top;align=center;html=1;shape=mxgraph.aws3.rds_db_instance_read_replica;fillColor=#2E73B8;gradientColor=none;" vertex="1" parent="rve9FBE8nEOOU07aJZPF-96">
          <mxGeometry x="38.25" y="50" width="49.5" height="66" as="geometry" />
        </mxCell>
        <mxCell id="rve9FBE8nEOOU07aJZPF-95" value="" style="group" vertex="1" connectable="0" parent="rve9FBE8nEOOU07aJZPF-92">
          <mxGeometry x="184" y="131" width="130" height="150" as="geometry" />
        </mxCell>
        <mxCell id="rve9FBE8nEOOU07aJZPF-87" value="Availability zone 2" style="sketch=0;outlineConnect=0;gradientColor=none;html=1;whiteSpace=wrap;fontSize=12;fontStyle=0;shape=mxgraph.aws4.group;grIcon=mxgraph.aws4.group_availability_zone;strokeColor=#545B64;fillColor=none;verticalAlign=top;align=left;spacingLeft=30;fontColor=#545B64;dashed=1;" vertex="1" parent="rve9FBE8nEOOU07aJZPF-95">
          <mxGeometry width="130" height="150" as="geometry" />
        </mxCell>
        <mxCell id="rve9FBE8nEOOU07aJZPF-90" value="" style="outlineConnect=0;dashed=0;verticalLabelPosition=bottom;verticalAlign=top;align=center;html=1;shape=mxgraph.aws3.rds_db_instance_read_replica;fillColor=#2E73B8;gradientColor=none;" vertex="1" parent="rve9FBE8nEOOU07aJZPF-95">
          <mxGeometry x="37.25" y="50" width="49.5" height="66" as="geometry" />
        </mxCell>
        <mxCell id="rve9FBE8nEOOU07aJZPF-94" value="" style="group" vertex="1" connectable="0" parent="rve9FBE8nEOOU07aJZPF-92">
          <mxGeometry x="30" y="131" width="130" height="150" as="geometry" />
        </mxCell>
        <mxCell id="rve9FBE8nEOOU07aJZPF-86" value="Availability zone 1" style="sketch=0;outlineConnect=0;gradientColor=none;html=1;whiteSpace=wrap;fontSize=12;fontStyle=0;shape=mxgraph.aws4.group;grIcon=mxgraph.aws4.group_availability_zone;strokeColor=#545B64;fillColor=none;verticalAlign=top;align=left;spacingLeft=30;fontColor=#545B64;dashed=1;" vertex="1" parent="rve9FBE8nEOOU07aJZPF-94">
          <mxGeometry x="-8" y="5" width="130" height="150" as="geometry" />
        </mxCell>
        <mxCell id="rve9FBE8nEOOU07aJZPF-89" value="" style="outlineConnect=0;dashed=0;verticalLabelPosition=bottom;verticalAlign=top;align=center;html=1;shape=mxgraph.aws3.rds_db_instance;fillColor=#2E73B8;gradientColor=none;" vertex="1" parent="rve9FBE8nEOOU07aJZPF-94">
          <mxGeometry x="32.25" y="50" width="49.5" height="66" as="geometry" />
        </mxCell>
        <mxCell id="rve9FBE8nEOOU07aJZPF-24" value="AND/OR" style="text;html=1;strokeColor=none;fillColor=none;align=center;verticalAlign=middle;whiteSpace=wrap;rounded=0;" vertex="1" parent="rve9FBE8nEOOU07aJZPF-111">
          <mxGeometry x="635.5" y="530" width="30" height="30" as="geometry" />
        </mxCell>
        <mxCell id="rve9FBE8nEOOU07aJZPF-19" value="Application" style="text;html=1;strokeColor=none;fillColor=none;align=center;verticalAlign=middle;whiteSpace=wrap;rounded=0;" vertex="1" parent="rve9FBE8nEOOU07aJZPF-111">
          <mxGeometry x="615" y="630" width="81" height="30" as="geometry" />
        </mxCell>
        <mxCell id="rve9FBE8nEOOU07aJZPF-39" value="" style="endArrow=classic;startArrow=classic;html=1;rounded=0;exitX=0.5;exitY=0;exitDx=0;exitDy=0;exitPerimeter=0;entryX=0.5;entryY=1;entryDx=0;entryDy=0;" edge="1" parent="rve9FBE8nEOOU07aJZPF-111" source="rve9FBE8nEOOU07aJZPF-47" target="rve9FBE8nEOOU07aJZPF-19">
          <mxGeometry width="50" height="50" relative="1" as="geometry">
            <mxPoint x="596.5" y="720" as="sourcePoint" />
            <mxPoint x="590.5" y="660" as="targetPoint" />
          </mxGeometry>
        </mxCell>
        <mxCell id="rve9FBE8nEOOU07aJZPF-84" value="" style="endArrow=classic;startArrow=classic;html=1;rounded=0;exitX=0.5;exitY=0;exitDx=0;exitDy=0;entryX=0.5;entryY=1;entryDx=0;entryDy=0;" edge="1" parent="rve9FBE8nEOOU07aJZPF-111" source="rve9FBE8nEOOU07aJZPF-83" target="rve9FBE8nEOOU07aJZPF-50">
          <mxGeometry width="50" height="50" relative="1" as="geometry">
            <mxPoint x="649.5" y="926" as="sourcePoint" />
            <mxPoint x="649.5" y="870" as="targetPoint" />
          </mxGeometry>
        </mxCell>
        <mxCell id="rve9FBE8nEOOU07aJZPF-60" value="" style="group" vertex="1" connectable="0" parent="rve9FBE8nEOOU07aJZPF-111">
          <mxGeometry x="576" y="705" width="171.5" height="112" as="geometry" />
        </mxCell>
        <mxCell id="rve9FBE8nEOOU07aJZPF-47" value="" style="sketch=0;points=[[0,0,0],[0.25,0,0],[0.5,0,0],[0.75,0,0],[1,0,0],[0,1,0],[0.25,1,0],[0.5,1,0],[0.75,1,0],[1,1,0],[0,0.25,0],[0,0.5,0],[0,0.75,0],[1,0.25,0],[1,0.5,0],[1,0.75,0]];points=[[0,0,0],[0.25,0,0],[0.5,0,0],[0.75,0,0],[1,0,0],[0,1,0],[0.25,1,0],[0.5,1,0],[0.75,1,0],[1,1,0],[0,0.25,0],[0,0.5,0],[0,0.75,0],[1,0.25,0],[1,0.5,0],[1,0.75,0]];outlineConnect=0;fontColor=#232F3E;gradientColor=#F34482;gradientDirection=north;fillColor=#BC1356;strokeColor=#ffffff;dashed=0;verticalLabelPosition=bottom;verticalAlign=top;align=center;html=1;fontSize=12;fontStyle=0;aspect=fixed;shape=mxgraph.aws4.resourceIcon;resIcon=mxgraph.aws4.cloudwatch_2;" vertex="1" parent="rve9FBE8nEOOU07aJZPF-60">
          <mxGeometry x="40" width="78" height="78" as="geometry" />
        </mxCell>
        <mxCell id="rve9FBE8nEOOU07aJZPF-50" value="Cloudwatch&lt;br&gt;(for logging, metrics, alarms)" style="text;html=1;strokeColor=none;fillColor=none;align=center;verticalAlign=middle;whiteSpace=wrap;rounded=0;" vertex="1" parent="rve9FBE8nEOOU07aJZPF-60">
          <mxGeometry y="82" width="171.5" height="30" as="geometry" />
        </mxCell>
        <mxCell id="rve9FBE8nEOOU07aJZPF-113" value="" style="group" vertex="1" connectable="0" parent="rve9FBE8nEOOU07aJZPF-111">
          <mxGeometry x="614.9999999999999" y="870" width="97.88" height="112" as="geometry" />
        </mxCell>
        <mxCell id="rve9FBE8nEOOU07aJZPF-83" value="" style="shape=image;verticalLabelPosition=bottom;labelBackgroundColor=default;verticalAlign=top;aspect=fixed;imageAspect=0;image=https://images.contentstack.io/v3/assets/bltefdd0b53724fa2ce/blt601c406b0b5af740/620577381692951393fdf8d6/elastic-logo-cluster.svg;" vertex="1" parent="rve9FBE8nEOOU07aJZPF-113">
          <mxGeometry x="6.560000000000059" width="80.39" height="80" as="geometry" />
        </mxCell>
        <mxCell id="rve9FBE8nEOOU07aJZPF-85" value="ELK&lt;br&gt;(for monitoring)" style="text;html=1;strokeColor=none;fillColor=none;align=center;verticalAlign=middle;whiteSpace=wrap;rounded=0;" vertex="1" parent="rve9FBE8nEOOU07aJZPF-113">
          <mxGeometry y="82" width="97.88" height="30" as="geometry" />
        </mxCell>
        <mxCell id="rve9FBE8nEOOU07aJZPF-114" value="AWS Cloud" style="sketch=0;outlineConnect=0;gradientColor=none;html=1;whiteSpace=wrap;fontSize=12;fontStyle=0;shape=mxgraph.aws4.group;grIcon=mxgraph.aws4.group_aws_cloud;strokeColor=#858B94;fillColor=none;verticalAlign=top;align=left;spacingLeft=30;fontColor=#858B94;dashed=0;" vertex="1" parent="rve9FBE8nEOOU07aJZPF-111">
          <mxGeometry x="-50" y="-60" width="1560" height="1270" as="geometry" />
        </mxCell>
        <mxCell id="rve9FBE8nEOOU07aJZPF-112" value="" style="endArrow=classic;startArrow=classic;html=1;rounded=0;entryX=0.5;entryY=1;entryDx=0;entryDy=0;exitX=0.696;exitY=-0.001;exitDx=0;exitDy=0;exitPerimeter=0;" edge="1" parent="1" source="rve9FBE8nEOOU07aJZPF-18" target="rve9FBE8nEOOU07aJZPF-106">
          <mxGeometry width="50" height="50" relative="1" as="geometry">
            <mxPoint x="590" y="940" as="sourcePoint" />
            <mxPoint x="640" y="890" as="targetPoint" />
          </mxGeometry>
        </mxCell>
      </root>
    </mxGraphModel>
  </diagram>
</mxfile>
